<?xml version="1.0" standalone="no"?> <!DOCTYPE svg PUBLIC "-//W3C//DTD SVG 20010904//EN" "http://www.w3.org/TR/2001/REC-SVG-20010904/DTD/svg10.dtd"> <svg version="1.0" xmlns="http://www.w3.org/2000/svg" width="171.000000pt" height="52.000000pt" viewBox="0 0 171.000000 52.000000" preserveAspectRatio="xMidYMid meet"> <g transform="translate(0.000000,52.000000) scale(0.100000,-0.100000)" fill="#1597a8" stroke="none"> <path d="M305 425 c-85 -69 -95 -82 -72 -91 10 -3 44 18 91 57 l76 62 38 -29 c20 -17 56 -45 79 -63 37 -30 63 -34 63 -11 0 13 -163 140 -180 140 -8 -1 -51 -30 -95 -65z"/> <path d="M360 341 c0 -15 6 -21 21 -21 14 0 19 5 17 17 -5 26 -38 29 -38 4z"/> <path d="M410 340 c0 -11 7 -20 15 -20 8 0 15 9 15 20 0 11 -7 20 -15 20 -8 0 -15 -9 -15 -20z"/> <path d="M266 294 c-9 -40 5 -74 65 -155 74 -100 67 -100 137 -7 64 85 82 133 64 171 -11 22 -11 22 -11 -3 -1 -40 -38 -90 -78 -107 -71 -29 -132 8 -159 96 l-10 36 -8 -31z m135 -149 c18 12 29 -6 14 -22 -18 -17 -18 -17 -34 14 -14 27 -14 44 0 20 6 -9 14 -15 20 -12z"/> <path d="M360 290 c0 -17 7 -20 40 -20 33 0 40 3 40 20 0 25 -30 27 -30 3 -1 -17 -1 -17 -14 0 -18 23 -36 22 -36 -3z"/> <path d="M850 224 c0 -66 2 -75 18 -73 9 1 25 -1 35 -6 24 -10 57 21 57 55 0 15 -9 35 -21 46 -17 15 -23 16 -40 6 -17 -11 -19 -9 -19 18 0 20 -5 30 -15 30 -12 0 -15 -15 -15 -76z m75 -24 c0 -29 -32 -41 -41 -16 -9 24 4 48 23 44 12 -2 18 -12 18 -28z"/> <path d="M977 294 c-13 -13 -7 -24 14 -24 11 0 19 5 17 12 -5 14 -22 21 -31 12z"/> <path d="M1054 290 c-46 -18 -40 -63 12 -80 19 -6 34 -18 34 -26 0 -17 -24 -18 -50 -2 -29 18 -39 -1 -11 -23 27 -22 50 -24 75 -6 30 22 17 59 -28 80 -28 14 -36 21 -28 29 9 9 18 8 37 -2 34 -18 46 -3 16 21 -26 21 -27 21 -57 9z"/> <path d="M590 220 c0 -64 5 -75 27 -67 4 1 6 14 4 30 -2 24 1 27 28 27 29 0 31 -3 31 -35 0 -26 3 -33 15 -29 11 5 15 23 15 75 0 55 -3 69 -15 69 -10 0 -15 -10 -15 -30 0 -27 -3 -30 -31 -30 -29 0 -31 2 -27 30 4 24 1 30 -14 30 -16 0 -18 -9 -18 -70z"/> <path d="M758 249 c-29 -16 -21 -31 12 -24 19 4 30 3 30 -4 0 -6 -11 -11 -24 -11 -28 0 -49 -22 -40 -43 8 -21 22 -25 62 -20 30 5 32 7 32 49 0 33 -5 46 -19 54 -24 12 -31 12 -53 -1z m42 -64 c0 -8 -9 -15 -20 -15 -25 0 -26 17 -2 23 9 3 18 5 20 6 1 0 2 -6 2 -14z"/> <path d="M1178 253 c-28 -4 -28 -5 -28 -79 0 -59 3 -74 15 -74 9 0 15 10 15 26 0 21 4 24 19 19 24 -7 61 26 61 55 0 20 -33 61 -47 59 -5 -1 -20 -4 -35 -6z m47 -53 c0 -18 -6 -26 -22 -28 -20 -3 -23 1 -23 28 0 27 3 31 23 28 16 -2 22 -10 22 -28z"/> <path d="M1288 249 c-29 -16 -21 -31 11 -24 17 3 32 2 36 -4 3 -6 -2 -11 -14 -11 -32 0 -51 -11 -51 -30 0 -25 26 -44 47 -35 10 5 24 7 31 6 16 -3 16 81 0 97 -15 15 -37 15 -60 1z m42 -74 c-12 -15 -30 -12 -30 6 0 5 10 9 21 9 18 0 19 -2 9 -15z"/> <path d="M1402 244 c-32 -22 -27 -73 10 -93 24 -14 28 -14 48 4 15 14 18 21 9 29 -8 8 -13 7 -16 -1 -6 -18 -40 -16 -47 2 -3 8 -3 22 0 30 7 18 41 20 46 3 2 -6 10 -8 17 -4 9 6 8 12 -5 27 -21 23 -33 24 -62 3z"/> <path d="M1512 244 c-52 -36 -4 -122 53 -96 38 17 31 34 -10 26 -23 -4 -35 -2 -35 5 0 6 16 11 35 11 27 0 35 4 35 18 0 19 -29 52 -46 52 -5 0 -20 -7 -32 -16z m48 -24 c0 -5 -9 -10 -20 -10 -11 0 -20 5 -20 10 0 6 9 10 20 10 11 0 20 -4 20 -10z"/> <path d="M982 198 c4 -65 22 -61 22 4 1 33 -3 48 -12 48 -9 0 -12 -14 -10 -52z"/> </g> </svg>