<svg width="72" height="72" viewBox="0 0 72 72" fill="none" xmlns="http://www.w3.org/2000/svg">
<circle cx="36" cy="36" r="36" fill="#F0FEE8"/>
<path fill-rule="evenodd" clip-rule="evenodd" d="M35.9998 52C38.101 52 40.1816 51.5861 42.1228 50.7821C44.064 49.978 45.8278 48.7994 47.3135 47.3137C48.7993 45.828 49.9778 44.0641 50.7819 42.1229C51.586 40.1817 51.9998 38.1012 51.9998 36C51.9998 33.8989 51.586 31.8183 50.7819 29.8771C49.9778 27.9359 48.7993 26.172 47.3135 24.6863C45.8278 23.2006 44.064 22.022 42.1228 21.2179C40.1816 20.4139 38.101 20 35.9998 20C31.7564 20 27.6867 21.6857 24.6861 24.6863C21.6855 27.6869 19.9998 31.7565 19.9998 36C19.9998 40.2435 21.6855 44.3131 24.6861 47.3137C27.6867 50.3143 31.7564 52 35.9998 52ZM35.5874 42.4711L44.4763 31.8044L41.7456 29.5289L34.1012 38.7004L30.1456 34.7431L27.6318 37.2569L32.9652 42.5902L34.3412 43.9662L35.5874 42.4711Z" fill="#53A531"/>
</svg>
