<svg width="20" height="20" viewBox="0 0 20 20" fill="none" xmlns="http://www.w3.org/2000/svg">
<path fill-rule="evenodd" clip-rule="evenodd" d="M0 4.857C0 3.56884 0.511718 2.33345 1.42258 1.42258C2.33345 0.511718 3.56884 0 4.857 0H10C10.2652 0 10.5196 0.105357 10.7071 0.292893C10.8946 0.48043 11 0.734784 11 1C11 1.26522 10.8946 1.51957 10.7071 1.70711C10.5196 1.89464 10.2652 2 10 2H4.857C4.09928 2 3.37259 2.301 2.8368 2.8368C2.301 3.37259 2 4.09928 2 4.857V15.143C2 15.9007 2.301 16.6274 2.8368 17.1632C3.37259 17.699 4.09928 18 4.857 18H15.143C15.9007 18 16.6274 17.699 17.1632 17.1632C17.699 16.6274 18 15.9007 18 15.143V10C18 9.73478 18.1054 9.48043 18.2929 9.29289C18.4804 9.10536 18.7348 9 19 9C19.2652 9 19.5196 9.10536 19.7071 9.29289C19.8946 9.48043 20 9.73478 20 10V15.143C20 16.4312 19.4883 17.6666 18.5774 18.5774C17.6666 19.4883 16.4312 20 15.143 20H4.857C3.56884 20 2.33345 19.4883 1.42258 18.5774C0.511718 17.6666 0 16.4312 0 15.143V4.857Z" fill="#1597A8"/>
<path fill-rule="evenodd" clip-rule="evenodd" d="M13.137 11.2191L10.932 12.5491L9.89902 10.8361L12.104 9.5061L12.107 9.5041C12.1915 9.4532 12.2695 9.39207 12.339 9.3221L17.349 4.2861C17.3992 4.23551 17.4476 4.18314 17.494 4.1291C17.825 3.7431 18.315 2.9791 17.722 2.3831C17.221 1.8791 16.503 2.3551 16.038 2.7641C15.9133 2.87406 15.7932 2.98916 15.678 3.1091L15.644 3.1431L10.704 8.1081C10.5867 8.2247 10.4948 8.36429 10.434 8.5181L9.61002 10.5911C9.59439 10.6301 9.59145 10.673 9.60161 10.7138C9.61176 10.7546 9.63451 10.7911 9.66661 10.8183C9.69871 10.8454 9.73853 10.8617 9.78043 10.8649C9.82233 10.8681 9.86317 10.858 9.89902 10.8361L10.932 12.5491C9.12702 13.6371 6.97202 11.8091 7.75202 9.8511L8.57702 7.7791C8.73764 7.3742 8.97925 7.00636 9.28702 6.6981L14.226 1.7321L14.255 1.7031C14.402 1.5531 14.896 1.0471 15.495 0.683102C15.822 0.486102 16.344 0.225102 16.989 0.175102C17.729 0.116102 18.519 0.349102 19.139 0.972102C19.6136 1.44089 19.912 2.05895 19.984 2.7221C20.0336 3.239 19.9546 3.76012 19.754 4.2391C19.464 4.9561 18.98 5.4831 18.767 5.6961L13.757 10.7321C13.5704 10.9194 13.3637 11.0818 13.137 11.2191ZM17.59 4.0931C17.59 4.0931 17.586 4.0961 17.577 4.0991L17.59 4.0931Z" fill="#1597A8"/>
</svg>
