<svg width="24" height="21" viewBox="0 0 24 21" fill="none" xmlns="http://www.w3.org/2000/svg">
<path fill-rule="evenodd" clip-rule="evenodd" d="M10.3546 0.50258C10.8412 0.174987 11.4145 0 12.0012 0C12.5878 0 13.1611 0.174987 13.6477 0.50258L14.786 1.28087C18.1 3.53141 20.9848 6.35645 23.3043 9.62258L23.6694 10.1403C24.1152 10.7746 24.0843 11.5357 23.7346 12.1066C23.5587 12.39 23.3125 12.6232 23.02 12.7836C22.7274 12.944 22.3985 13.0261 22.0649 13.022H21.0929C21.1443 14.6129 21.0534 16.5226 20.8186 17.8957C20.5426 19.5157 19.046 20.5717 17.4517 20.5717H6.54887C4.95458 20.5717 3.45801 19.5157 3.18201 17.8974C2.94716 16.5226 2.8563 14.6129 2.90773 13.022H1.93401C1.22944 13.022 0.605441 12.6637 0.264298 12.1066C0.0804597 11.8086 -0.0111236 11.463 0.00107827 11.1131C0.0132802 10.7632 0.128722 10.4247 0.33287 10.1403L0.696298 9.62258C3.01627 6.3563 5.90169 3.53125 9.2163 1.28087L10.3546 0.50258ZM12.4374 2.27172C12.3072 2.18758 12.1554 2.14283 12.0003 2.14283C11.8452 2.14283 11.6934 2.18758 11.5632 2.27172L10.4249 3.05001C7.32294 5.15797 4.6218 7.80222 2.4483 10.8586L2.43287 10.8792H4.0443C4.19302 10.8793 4.3401 10.9103 4.47615 10.9704C4.61221 11.0305 4.73427 11.1182 4.83457 11.228C4.93487 11.3378 5.01121 11.4673 5.05873 11.6082C5.10625 11.7492 5.12391 11.8985 5.11058 12.0466C4.9683 13.6083 5.03173 16.0066 5.29401 17.5357C5.36773 17.9694 5.83401 18.4289 6.54887 18.4289H8.7123V14.2889C8.7023 13.8509 8.77992 13.4153 8.94062 13.0077C9.10132 12.6002 9.34185 12.2288 9.64808 11.9155C9.95431 11.6022 10.3201 11.3533 10.7239 11.1833C11.1277 11.0133 11.5613 10.9258 11.9994 10.9258C12.4375 10.9258 12.8712 11.0133 13.275 11.1833C13.6788 11.3533 14.0446 11.6022 14.3508 11.9155C14.657 12.2288 14.8976 12.6002 15.0583 13.0077C15.219 13.4153 15.2966 13.8509 15.2866 14.2889V18.4289H17.4517C18.1666 18.4289 18.6329 17.9694 18.7066 17.5357C18.9689 16.0066 19.0323 13.61 18.89 12.0466C18.8767 11.8985 18.8943 11.7492 18.9419 11.6082C18.9894 11.4673 19.0657 11.3378 19.166 11.228C19.2663 11.1182 19.3884 11.0305 19.5244 10.9704C19.6605 10.9103 19.8076 10.8793 19.9563 10.8792H21.5677L21.5523 10.8586C19.3793 7.80237 16.6788 5.15813 13.5774 3.05001L12.4374 2.27172Z" fill="#1E1E1E"/>
</svg>
