<svg width="32" height="32" viewBox="0 0 32 32" fill="none" xmlns="http://www.w3.org/2000/svg">
<path fill-rule="evenodd" clip-rule="evenodd" d="M16 2.66675C19.1826 2.66675 22.2348 3.93103 24.4853 6.18147C26.7357 8.4319 28 11.4842 28 14.6667C28 18.7654 25.7653 22.1201 23.4107 24.5267C22.2342 25.7162 20.9506 26.7945 19.576 27.7481L19.008 28.1347L18.7413 28.3121L18.2387 28.6321L17.7907 28.9054L17.236 29.2281C16.8595 29.443 16.4335 29.556 16 29.556C15.5665 29.556 15.1405 29.443 14.764 29.2281L14.2093 28.9054L13.516 28.4787L13.26 28.3121L12.7133 27.9481C11.2304 26.9448 9.8492 25.7989 8.58933 24.5267C6.23467 22.1187 4 18.7654 4 14.6667C4 11.4842 5.26428 8.4319 7.51472 6.18147C9.76515 3.93103 12.8174 2.66675 16 2.66675ZM16 5.33341C13.5246 5.33341 11.1507 6.31675 9.40034 8.06708C7.65 9.81742 6.66667 12.1914 6.66667 14.6667C6.66667 17.7627 8.36267 20.4801 10.4947 22.6614C11.4114 23.5894 12.4022 24.4411 13.4573 25.2081L14.068 25.6427C14.2653 25.7805 14.4551 25.9085 14.6373 26.0267L15.1573 26.3601L15.6147 26.6387L16 26.8641L16.6067 26.5054L17.096 26.1987C17.3564 26.0334 17.6351 25.8481 17.932 25.6427L18.5427 25.2081C19.5978 24.4411 20.5886 23.5894 21.5053 22.6614C23.6373 20.4814 25.3333 17.7627 25.3333 14.6667C25.3333 12.1914 24.35 9.81742 22.5997 8.06708C20.8493 6.31675 18.4754 5.33341 16 5.33341ZM16 9.33342C17.4145 9.33342 18.771 9.89532 19.7712 10.8955C20.7714 11.8957 21.3333 13.2523 21.3333 14.6667C21.3333 16.0812 20.7714 17.4378 19.7712 18.438C18.771 19.4382 17.4145 20.0001 16 20.0001C14.5855 20.0001 13.229 19.4382 12.2288 18.438C11.2286 17.4378 10.6667 16.0812 10.6667 14.6667C10.6667 13.2523 11.2286 11.8957 12.2288 10.8955C13.229 9.89532 14.5855 9.33342 16 9.33342ZM16 12.0001C15.2928 12.0001 14.6145 12.281 14.1144 12.7811C13.6143 13.2812 13.3333 13.9595 13.3333 14.6667C13.3333 15.374 13.6143 16.0523 14.1144 16.5524C14.6145 17.0525 15.2928 17.3334 16 17.3334C16.7072 17.3334 17.3855 17.0525 17.8856 16.5524C18.3857 16.0523 18.6667 15.374 18.6667 14.6667C18.6667 13.9595 18.3857 13.2812 17.8856 12.7811C17.3855 12.281 16.7072 12.0001 16 12.0001Z" fill="#1597A8"/>
</svg>
