<svg width="12" height="15" viewBox="0 0 12 15" fill="none" xmlns="http://www.w3.org/2000/svg">
<path d="M2.49048 1.634C4.35515 3.69733 7.43048 -0.755332 9.25048 0.860668C10.2971 1.79 9.96581 3.84333 8.60714 5.18067" stroke="#1597A8" stroke-linecap="round"/>
<path d="M7.02661 8.49002C7.03861 8.26668 7.10061 7.85868 6.76195 7.54868C6.63252 7.43566 6.48146 7.35014 6.31795 7.29735C5.61928 7.05068 4.76061 7.87535 5.36795 8.63068C5.69461 9.03602 5.94595 9.16068 5.92261 9.62135C5.90595 9.94535 5.58728 10.284 5.16795 10.4133C4.80328 10.5253 4.40128 10.3767 4.14728 10.0927C3.83661 9.74602 3.86728 9.41868 3.86528 9.27602M6.76195 7.54935L7.14461 7.16602M4.17461 10.136L3.81128 10.4993" stroke="#1597A8" stroke-linecap="round" stroke-linejoin="round"/>
<path d="M10.0153 3.58932C10.6319 3.70799 10.7706 4.09732 10.9546 5.17866C11.1206 6.15199 11.1673 7.32066 11.1673 7.81866C11.1504 8.00147 11.0759 8.17422 10.9546 8.31199C9.6646 9.66399 7.10393 12.2173 5.81193 13.4853C5.30526 13.9387 4.53993 13.9487 4.00126 13.5327C2.89926 12.5413 1.8406 11.4207 0.803263 10.4093C0.386596 9.87199 0.396596 9.10932 0.84993 8.60332C2.21726 7.18532 4.69126 4.75799 6.08726 3.41666C6.22726 3.29666 6.39926 3.22199 6.5826 3.20532C6.89593 3.20532 7.43326 3.24732 7.95726 3.27732" stroke="#1597A8" stroke-linecap="round"/>
</svg>
