<svg width="17" height="17" viewBox="0 0 17 17" fill="none" xmlns="http://www.w3.org/2000/svg">
<path fill-rule="evenodd" clip-rule="evenodd" d="M12.6212 11.1726L16.8652 15.4166L15.4512 16.8316L11.2112 12.5916C9.79758 13.6562 8.03317 14.1459 6.27305 13.9622C4.51293 13.7784 2.88774 12.9347 1.72454 11.601C0.561339 10.2673 -0.0535329 8.54255 0.00365993 6.77378C0.0608528 5.00501 0.785866 3.32355 2.0328 2.06778C3.27973 0.812004 4.95602 0.0751261 6.72434 0.00543474C8.49266 -0.0642567 10.2217 0.538412 11.5636 1.69216C12.9055 2.8459 13.7606 4.46509 13.9568 6.22387C14.1531 7.98265 13.6758 9.75047 12.6212 11.1716V11.1726ZM11.9992 7.00059C11.9992 5.6745 11.4724 4.40273 10.5347 3.46505C9.59706 2.52737 8.32529 2.00059 6.99921 2.00059C5.67312 2.00059 4.40135 2.52737 3.46367 3.46505C2.52599 4.40273 1.99921 5.6745 1.99921 7.00059C1.99921 8.32667 2.52599 9.59844 3.46367 10.5361C4.40135 11.4738 5.67312 12.0006 6.99921 12.0006C8.32529 12.0006 9.59706 11.4738 10.5347 10.5361C11.4724 9.59844 11.9992 8.32667 11.9992 7.00059Z" fill="#1E1E1E"/>
</svg>
